<?xml version="1.0" encoding="utf-8"?>
<!-- Generator: Adobe Illustrator 15.1.0, SVG Export Plug-In . SVG Version: 6.00 Build 0)  -->
<!DOCTYPE svg PUBLIC "-//W3C//DTD SVG 1.1//EN" "http://www.w3.org/Graphics/SVG/1.1/DTD/svg11.dtd">
<svg version="1.1" id="Ebene_1" xmlns="http://www.w3.org/2000/svg" xmlns:xlink="http://www.w3.org/1999/xlink" x="0px" y="0px"
	 width="37px" height="37px" viewBox="0 0 37 37" enable-background="new 0 0 37 37" xml:space="preserve">
<g>
	<path fill="none" stroke="#1A171B" stroke-width="1.9429" stroke-miterlimit="10" d="M33.671,17.1
		c-2.684,1.033-5.768,1.024-8.588-0.271c-3.646-1.674-5.949-5.08-6.377-8.792"/>
	<path fill="#1A171B" d="M13.114,25.74c0,1.78-1.44,3.225-3.225,3.225c-1.781,0-3.224-1.444-3.224-3.225
		c0-1.781,1.442-3.226,3.224-3.226C11.673,22.515,13.114,23.959,13.114,25.74z"/>
	<path fill="#1A171B" d="M29.911,25.74c0,1.78-1.439,3.225-3.225,3.225c-1.779,0-3.223-1.444-3.223-3.225
		c0-1.781,1.443-3.226,3.223-3.226C28.472,22.515,29.911,23.959,29.911,25.74z"/>
	<path fill="none" stroke="#1A171B" stroke-width="1.9429" stroke-miterlimit="10" d="M1.5,25.037c0-9.389,7.613-17.001,17-17.001
		c9.389,0,17,7.612,17,17.001H1.5z"/>
</g>
</svg>
