<?xml version="1.0" encoding="utf-8"?>
<!-- Generator: Adobe Illustrator 15.1.0, SVG Export Plug-In . SVG Version: 6.00 Build 0)  -->
<!DOCTYPE svg PUBLIC "-//W3C//DTD SVG 1.1//EN" "http://www.w3.org/Graphics/SVG/1.1/DTD/svg11.dtd">
<svg version="1.1" id="Ebene_1" xmlns="http://www.w3.org/2000/svg" xmlns:xlink="http://www.w3.org/1999/xlink" x="0px" y="0px"
	 width="37px" height="37px" viewBox="0 0 37 37" enable-background="new 0 0 37 37" xml:space="preserve">
<g>
	<path fill="none" stroke="#000000" stroke-width="2" stroke-miterlimit="10" d="M18.443,18.338c-0.046-4.657-3.833-8.42-8.5-8.42
		s-8.455,3.763-8.5,8.42"/>
	<path fill="none" stroke="#000000" stroke-width="2" stroke-miterlimit="10" d="M18.443,18.338
		c-2.367-4.011-7.527-5.376-11.571-3.042c-4.044,2.335-5.442,7.486-3.152,11.541"/>
	<path fill="none" stroke="#000000" stroke-width="2" stroke-miterlimit="10" d="M18.443,18.338
		c-4.057-2.29-9.208-0.891-11.541,3.151c-2.335,4.043-0.971,9.203,3.041,11.57"/>
	<path fill="none" stroke="#000000" stroke-width="2" stroke-miterlimit="10" d="M18.443,18.338
		c-4.658,0.044-8.419,3.831-8.419,8.499s3.761,8.457,8.419,8.5"/>
	<path fill="none" stroke="#000000" stroke-width="2" stroke-miterlimit="10" d="M18.443,18.338
		c-4.011,2.366-5.376,7.528-3.041,11.571c2.333,4.041,7.485,5.441,11.542,3.15"/>
	<path fill="none" stroke="#000000" stroke-width="2" stroke-miterlimit="10" d="M18.443,18.338
		c-2.29,4.056-0.891,9.208,3.151,11.542c4.043,2.334,9.205,0.969,11.572-3.043"/>
	<path fill="none" stroke="#000000" stroke-width="2" stroke-miterlimit="10" d="M18.443,18.338c0.046,4.657,3.833,8.419,8.5,8.419
		c4.666,0,8.455-3.762,8.5-8.419"/>
	<path fill="none" stroke="#000000" stroke-width="2" stroke-miterlimit="10" d="M18.443,18.338
		c2.368,4.011,7.528,5.376,11.571,3.042s5.441-7.485,3.152-11.542"/>
	<path fill="none" stroke="#000000" stroke-width="2" stroke-miterlimit="10" d="M18.443,18.338
		c4.057,2.29,9.208,0.892,11.542-3.151c2.334-4.042,0.969-9.204-3.041-11.57"/>
	<path fill="none" stroke="#000000" stroke-width="2" stroke-miterlimit="10" d="M18.443,18.338c4.659-0.044,8.418-3.832,8.418-8.5
		s-3.76-8.456-8.418-8.5"/>
	<path fill="none" stroke="#000000" stroke-width="2" stroke-miterlimit="10" d="M18.443,18.338
		c4.01-2.367,5.375-7.528,3.042-11.571c-2.334-4.042-7.486-5.441-11.542-3.15"/>
	<path fill="none" stroke="#000000" stroke-width="2" stroke-miterlimit="10" d="M18.443,18.338c2.29-4.056,0.891-9.207-3.15-11.542
		C11.25,4.463,6.087,5.827,3.72,9.838"/>
</g>
</svg>
